<svg width="194" height="194" viewBox="0 0 194 194" fill="none" xmlns="http://www.w3.org/2000/svg">
<circle cx="97" cy="97" r="97" fill="black" fill-opacity="0.82"/>
<path d="M121.119 47C121.791 47 122.446 47.0761 123.076 47.2158C124.345 47.0749 125.634 47 126.94 47C145.751 47 161 61.9985 161 80.5C161 99.0015 145.751 114 126.94 114C125.634 114 124.345 113.924 123.076 113.783C122.446 113.923 121.791 114 121.119 114H71C66.0295 114 62 109.971 62 105V56C62 51.0294 66.0294 47 71 47H121.119Z" fill="#D3F8EE"/>
<path d="M72.8809 147C72.2086 147 71.554 146.924 70.9238 146.784C69.6555 146.925 68.3662 147 67.0596 147C48.249 147 33 132.002 33 113.5C33 94.9985 48.249 80 67.0596 80C68.3662 80 69.6554 80.0759 70.9238 80.2168C71.5541 80.077 72.2085 80 72.8809 80L123 80C127.971 80 132 84.0295 132 89L132 138C132 142.971 127.971 147 123 147L72.8809 147Z" fill="#D47EFF" fill-opacity="0.79"/>
</svg>
