<svg width="618" height="194" viewBox="0 0 618 194" fill="none" xmlns="http://www.w3.org/2000/svg">
<path d="M256.171 151C247.576 151 240.201 149.233 234.047 145.7C227.928 142.167 223.224 137.256 219.934 130.967C216.645 124.643 215 117.329 215 109.026C215 100.688 216.645 93.3748 219.934 87.0858C223.259 80.7615 227.981 75.8328 234.1 72.2997C240.255 68.7666 247.594 67 256.118 67C263.652 67 270.213 68.3603 275.802 71.0808C281.426 73.8013 285.812 77.6524 288.96 82.6341C292.143 87.5804 293.823 93.3924 294 100.07L269.754 102C269.258 97.8309 267.844 92.6328 265.509 90.2656C263.21 87.8984 260.203 86.7148 256.49 86.7148C253.483 86.7148 250.848 87.5628 248.584 89.2587C246.321 90.9192 244.552 93.3924 243.279 96.6782C242.041 99.9287 241.422 103.956 241.422 108.762C241.422 113.567 242.041 117.63 243.279 120.951C244.552 124.237 246.321 126.727 248.584 128.423C250.848 130.084 253.483 130.914 256.49 130.914C258.895 130.914 261.017 130.402 262.856 129.377C264.731 128.353 266.27 126.851 267.472 124.873C268.675 122.859 269.435 116.862 269.754 114L294 117.559C293.752 124.272 292.072 130.137 288.96 135.154C285.882 140.171 281.55 144.075 275.961 146.866C270.408 149.622 263.811 151 256.171 151Z" fill="black" fill-opacity="0.82"/>
<path d="M326 148.473L300 154V47.1416L326 41V148.473Z" fill="black" fill-opacity="0.82"/>
<path d="M497.116 148.473L471.116 154V149.682C467.467 150.56 463.485 151 459.171 151C450.576 151 443.201 149.233 437.047 145.7C430.928 142.167 426.224 137.256 422.935 130.967C419.645 124.643 418 117.329 418 109.026C418 100.688 419.645 93.3749 422.935 87.0859C426.259 80.7618 430.981 75.8329 437.1 72.2998C443.254 68.7667 450.594 67 459.118 67C463.437 67 467.436 67.4477 471.116 68.3418V47.1416L497.116 41V148.473ZM459.489 86.7148C456.483 86.7149 453.848 87.563 451.584 89.2588C449.32 90.9194 447.552 93.393 446.278 96.6787C445.04 99.9291 444.422 103.957 444.422 108.762C444.422 113.567 445.04 117.63 446.278 120.951C447.552 124.237 449.32 126.728 451.584 128.424C453.848 130.084 456.483 130.914 459.489 130.914C461.894 130.914 464.017 130.402 465.856 129.377C467.731 128.352 469.269 126.851 470.472 124.872C470.703 124.485 470.918 124.082 471.116 123.663V94.0449C470.436 92.6001 469.568 91.3396 468.509 90.2656C466.21 87.8985 463.203 86.7148 459.489 86.7148Z" fill="black" fill-opacity="0.82"/>
<path d="M529 149.5L503 154V67L529 62V149.5ZM529 57L503 62V45.5L529 41V57Z" fill="black" fill-opacity="0.82"/>
<path d="M577.5 122C579.953 122 582.116 122.615 583.99 123.844C585.864 125.073 587.331 126.775 588.392 128.953C589.464 131.131 590 133.656 590 136.527C590 139.374 589.47 141.887 588.41 144.064C587.35 146.23 585.876 147.927 583.99 149.156C582.116 150.385 579.953 151 577.5 151C575.047 151 572.877 150.385 570.991 149.156C569.841 148.402 568.844 147.47 568 146.362V161H565V123H568V126.636C568.844 125.522 569.841 124.591 570.991 123.844C572.877 122.615 575.047 122 577.5 122ZM605.5 122C607.953 122 610.116 122.615 611.99 123.844C613.864 125.073 615.331 126.775 616.392 128.953C617.464 131.131 618 133.656 618 136.527C618 139.374 617.47 141.887 616.41 144.064C615.35 146.23 613.876 147.927 611.99 149.156C610.116 150.385 607.953 151 605.5 151C603.047 151 600.877 150.385 598.991 149.156C597.841 148.402 596.844 147.47 596 146.362V161H593V123H596V126.636C596.844 125.522 597.841 124.591 598.991 123.844C600.877 122.615 603.047 122 605.5 122ZM552.218 122C553.271 122 554.366 122.14 555.503 122.419C556.651 122.698 557.716 123.184 558.697 123.876C559.678 124.556 560.475 125.51 561.085 126.736C561.695 127.951 562 129.493 562 131.363V150.362H558.805V145.936H558.607C558.225 146.761 557.656 147.564 556.902 148.341C556.149 149.118 555.203 149.755 554.066 150.253C552.93 150.751 551.596 151 550.064 151C548.401 151 546.881 150.672 545.505 150.017C544.129 149.349 543.034 148.389 542.221 147.139C541.407 145.876 541 144.345 541 142.548C541 141.163 541.257 139.997 541.771 139.05C542.286 138.103 543.017 137.326 543.962 136.719C544.907 136.112 546.026 135.631 547.318 135.279C548.611 134.927 550.034 134.654 551.59 134.46C553.133 134.266 554.438 134.096 555.503 133.95C556.58 133.804 557.4 133.574 557.962 133.258C558.524 132.942 558.805 132.432 558.805 131.728V131.071C558.805 129.165 558.243 127.665 557.118 126.572C556.005 125.467 554.402 124.915 552.308 124.915C550.321 124.915 548.7 125.358 547.443 126.244C546.199 127.131 545.326 128.176 544.823 129.378L541.79 128.267C542.412 126.736 543.273 125.515 544.374 124.604C545.475 123.682 546.708 123.02 548.072 122.619C549.436 122.206 550.818 122 552.218 122ZM558.805 135.589C558.565 135.82 558.165 136.027 557.603 136.209C557.052 136.391 556.411 136.554 555.682 136.7C554.964 136.834 554.246 136.95 553.528 137.047C552.81 137.144 552.164 137.229 551.59 137.302C550.034 137.496 548.706 137.799 547.605 138.212C546.505 138.625 545.661 139.196 545.074 139.925C544.488 140.641 544.195 141.564 544.195 142.693C544.195 144.393 544.793 145.711 545.989 146.646C547.186 147.569 548.688 148.031 550.495 148.031C552.194 148.031 553.666 147.648 554.91 146.883C556.155 146.118 557.112 145.104 557.782 143.841C558.464 142.566 558.805 141.163 558.805 139.633V135.589ZM577.5 124.957C575.54 124.957 573.87 125.486 572.489 126.544C571.121 127.602 570.079 129.008 569.364 130.76C568.662 132.512 568.31 134.435 568.31 136.527C568.31 138.62 568.662 140.536 569.364 142.276C570.079 144.016 571.121 145.41 572.489 146.456C573.858 147.502 575.528 148.025 577.5 148.025C579.472 148.025 581.142 147.502 582.511 146.456C583.879 145.41 584.915 144.016 585.617 142.276C586.332 140.536 586.69 138.62 586.69 136.527C586.69 134.435 586.332 132.512 585.617 130.76C584.915 129.008 583.879 127.602 582.511 126.544C581.142 125.486 579.472 124.957 577.5 124.957ZM605.5 124.957C603.54 124.957 601.87 125.486 600.489 126.544C599.121 127.602 598.079 129.008 597.364 130.76C596.662 132.512 596.31 134.435 596.31 136.527C596.31 138.62 596.662 140.536 597.364 142.276C598.079 144.016 599.121 145.41 600.489 146.456C601.858 147.502 603.528 148.025 605.5 148.025C607.472 148.025 609.142 147.502 610.511 146.456C611.879 145.41 612.915 144.016 613.617 142.276C614.332 140.536 614.69 138.62 614.69 136.527C614.69 134.435 614.332 132.512 613.617 130.76C612.915 129.008 611.879 127.602 610.511 126.544C609.142 125.486 607.472 124.957 605.5 124.957Z" fill="black" fill-opacity="0.82"/>
<path d="M372 151C363.476 151 356.149 149.251 350.021 145.753C343.927 142.22 339.225 137.309 335.914 131.02C332.638 124.696 331 117.365 331 109.026C331 100.653 332.638 93.3218 335.914 87.0328C339.225 80.7085 343.927 75.7975 350.021 72.2997C356.149 68.7666 363.476 67 372 67C380.524 67 387.833 68.7666 393.927 72.2997C400.055 75.7975 404.758 80.7085 408.034 87.0328C411.344 93.3218 413 100.653 413 109.026C413 117.365 411.344 124.696 408.034 131.02C404.758 137.309 400.055 142.22 393.927 145.753C387.833 149.251 380.524 151 372 151ZM372.159 131.444C375.258 131.444 377.882 130.49 380.031 128.582C382.18 126.674 383.817 124.025 384.945 120.633C386.107 117.241 386.688 113.319 386.688 108.868C386.688 104.345 386.107 100.388 384.945 96.9962C383.817 93.6044 382.18 90.9546 380.031 89.0467C377.882 87.1388 375.258 86.1849 372.159 86.1849C368.953 86.1849 366.241 87.1388 364.022 89.0467C361.838 90.9546 360.165 93.6044 359.003 96.9962C357.875 100.388 357.312 104.345 357.312 108.868C357.312 113.319 357.875 117.241 359.003 120.633C360.165 124.025 361.838 126.674 364.022 128.582C366.241 130.49 368.953 131.444 372.159 131.444Z" fill="black" fill-opacity="0.82"/>
<circle cx="97" cy="97" r="97" fill="black" fill-opacity="0.82"/>
<path d="M121.119 47C121.791 47 122.446 47.0761 123.076 47.2158C124.345 47.0749 125.634 47 126.94 47C145.751 47 161 61.9985 161 80.5C161 99.0015 145.751 114 126.94 114C125.634 114 124.345 113.924 123.076 113.783C122.446 113.923 121.791 114 121.119 114H71C66.0295 114 62 109.971 62 105V56C62 51.0294 66.0294 47 71 47H121.119Z" fill="#E7F8FA"/>
<path d="M72.8809 147C72.2086 147 71.554 146.924 70.9238 146.784C69.6555 146.925 68.3662 147 67.0596 147C48.249 147 33 132.002 33 113.5C33 94.9985 48.249 80 67.0596 80C68.3662 80 69.6554 80.0759 70.9238 80.2168C71.5541 80.077 72.2085 80 72.8809 80L123 80C127.971 80 132 84.0295 132 89L132 138C132 142.971 127.971 147 123 147L72.8809 147Z" fill="#D47EFF" fill-opacity="0.79"/>
</svg>
